<?xml version="1.0" encoding="utf-8"?>
<svg xmlns="http://www.w3.org/2000/svg" fill="none" height="48" viewBox="0 0 60 60" width="48">
<g clip-path="url(#clip0_7128_37355)">
<path clip-rule="evenodd" d="M30.0008 4.80005C22.7106 4.80005 16.8008 10.7099 16.8008 18V24.3H16.5008C12.5243 24.3 9.30078 27.5236 9.30078 31.5V49.5C9.30078 53.4765 12.5243 56.7001 16.5008 56.7001H43.499C47.4755 56.7001 50.699 53.4765 50.699 49.5V31.5C50.699 27.5236 47.4754 24.3 43.499 24.3H43.2008V18C43.2008 10.7099 37.2909 4.80005 30.0008 4.80005ZM40.8008 24.3V18C40.8008 12.0354 35.9655 7.20005 30.0008 7.20005C24.0361 7.20005 19.2008 12.0354 19.2008 18V24.3H40.8008ZM11.7008 31.5C11.7008 28.8491 13.8498 26.7001 16.5008 26.7001H43.499C46.15 26.7001 48.299 28.8491 48.299 31.5V49.5C48.299 52.151 46.15 54.3 43.499 54.3H16.5008C13.8498 54.3 11.7008 52.151 11.7008 49.5V31.5Z" fill="#FF5A7D" fill-rule="evenodd"/>
<path clip-rule="evenodd" d="M30.6 42.5818L31.665 41.8689C32.8368 41.0845 33.6 39.7559 33.6 38.25C33.6 35.8476 31.6524 33.9 29.25 33.9C26.8476 33.9 24.9 35.8476 24.9 38.25C24.9 39.7559 25.6632 41.0845 26.835 41.8689L27.9 42.5818V43.8633V47.25C27.9 47.9956 28.5044 48.6 29.25 48.6C29.9956 48.6 30.6 47.9956 30.6 47.25V43.8633V42.5818ZM33 43.8633V47.25C33 49.3211 31.3211 51 29.25 51C27.1789 51 25.5 49.3211 25.5 47.25V43.8633C23.691 42.6524 22.5 40.5903 22.5 38.25C22.5 34.5221 25.5221 31.5 29.25 31.5C32.9779 31.5 36 34.5221 36 38.25C36 40.5903 34.809 42.6524 33 43.8633Z" fill="#FF5A7D" fill-rule="evenodd"/>
</g>
<defs>
<clipPath id="clip0_7128_37355">
<rect fill="white" height="60" width="60"/>
</clipPath>
</defs>
</svg>