<?xml version="1.0" encoding="utf-8"?>
<svg xmlns="http://www.w3.org/2000/svg" fill="none" height="47" viewBox="0 0 61 60" width="48">
<path d="M30.3122 54.75L41.9885 46.4426C46.8968 42.9494 49.8359 37.1366 49.8359 30.9223V10.8521C49.8359 10.8521 38.8343 9.22902 30.3086 6.00694C30.2976 6.00351 30.3596 5.99321 30.3633 6.00694C18.1509 10.279 10.8359 10.8521 10.8359 10.8521V30.9223C10.8359 37.1366 13.7751 42.9494 18.6833 46.4426L30.3596 54.75H30.3122Z" stroke="#FF5A7D" stroke-linecap="round" stroke-linejoin="round" stroke-miterlimit="10" stroke-width="2.4"/>
<path d="M30.3122 54.75L41.9885 46.4426C46.8968 42.9494 49.8359 37.1366 49.8359 30.9223V10.8521C49.8359 10.8521 38.8343 9.22902 30.3086 6.00694C30.2976 6.00351 30.3596 5.99321 30.3633 6.00694C18.1509 10.279 10.8359 10.8521 10.8359 10.8521V30.9223C10.8359 37.1366 13.7751 42.9494 18.6833 46.4426L30.3596 54.75H30.3122Z" stroke="#FF5A7D" stroke-linecap="round" stroke-linejoin="round" stroke-miterlimit="10" stroke-width="2.4"/>
<path d="M30.3195 46.5L38.4031 40.8765C41.8012 38.5119 43.8359 34.5771 43.8359 30.3705V16.7845C43.8359 16.7845 36.2194 15.6858 30.317 13.5047C30.3094 13.5024 30.3523 13.4954 30.3549 13.5047C21.9002 16.3966 16.8359 16.7845 16.8359 16.7845V30.3705C16.8359 34.5771 18.8707 38.5119 22.2688 40.8765L30.3523 46.5H30.3195Z" stroke="#FF5A7D" stroke-linecap="round" stroke-linejoin="round" stroke-miterlimit="10" stroke-width="2.4"/>
<path d="M24.3359 30L27.6087 34.5L36.3359 25.5" stroke="#FF5A7D" stroke-linecap="round" stroke-linejoin="round" stroke-miterlimit="10" stroke-width="2.4"/>
</svg>