<?xml version="1.0" encoding="utf-8"?>
<svg xmlns="http://www.w3.org/2000/svg" fill="none" height="47" viewBox="0 0 61 60" width="48">
<path clip-rule="evenodd" d="M29.6334 5.77654C29.6334 5.1138 30.1706 4.57654 30.8334 4.57654C31.4961 4.57654 32.0334 5.1138 32.0334 5.77654V7.91516C43.0016 8.59466 51.7566 17.4489 52.2793 28.459H54.6013C55.2641 28.459 55.8013 28.9962 55.8013 29.659C55.8013 30.3217 55.2641 30.859 54.6013 30.859H52.2621C51.5894 41.7228 42.8971 50.4154 32.0334 51.0884V53.1857C32.0334 53.8484 31.4961 54.3857 30.8334 54.3857C30.1706 54.3857 29.6334 53.8484 29.6334 53.1857V51.1057C18.6167 50.5831 9.75827 41.8184 9.08761 30.8412H6.96953C6.30679 30.8412 5.76953 30.3039 5.76953 29.6412C5.76953 28.9784 6.30679 28.4412 6.96953 28.4412H9.07237C9.60872 17.3339 18.5236 8.42487 29.6334 7.89788V5.77654ZM11.4927 30.8412H13.8552C14.518 30.8412 15.0552 30.3039 15.0552 29.6412C15.0552 28.9784 14.518 28.4412 13.8552 28.4412H11.4756C12.0073 18.6597 19.8495 10.8235 29.6334 10.301V12.6623C29.6334 13.325 30.1706 13.8623 30.8334 13.8623C31.4961 13.8623 32.0334 13.325 32.0334 12.6623V10.3204C41.6756 10.9932 49.3586 18.7748 49.8762 28.459H47.7156C47.0529 28.459 46.5156 28.9962 46.5156 29.659C46.5156 30.3217 47.0529 30.859 47.7156 30.859H49.8568C49.1917 40.3967 41.571 48.0177 32.0334 48.6832V46.3C32.0334 45.6372 31.4961 45.1 30.8334 45.1C30.1706 45.1 29.6334 45.6372 29.6334 46.3V48.7026C19.9426 48.1851 12.1568 40.4924 11.4927 30.8412ZM33.8432 29.5007C33.8432 31.2522 32.4233 32.6721 30.6718 32.6721C28.9202 32.6721 27.5003 31.2522 27.5003 29.5007C27.5003 27.7492 28.9202 26.3293 30.6718 26.3293C32.4233 26.3293 33.8432 27.7492 33.8432 29.5007ZM36.2432 29.5007C36.2432 32.5777 33.7488 35.0721 30.6718 35.0721C27.5948 35.0721 25.1003 32.5777 25.1003 29.5007C25.1003 26.4237 27.5948 23.9293 30.6718 23.9293C33.7488 23.9293 36.2432 26.4237 36.2432 29.5007Z" fill="#FF5A7D" fill-rule="evenodd"/>
</svg>